<?xml version="1.0" standalone="no"?><!DOCTYPE svg PUBLIC "-//W3C//DTD SVG 1.1//EN" "http://www.w3.org/Graphics/SVG/1.1/DTD/svg11.dtd"><svg class="icon" width="200px" height="200.00px" viewBox="0 0 1024 1024" version="1.1" xmlns="http://www.w3.org/2000/svg"><path d="M879.375623 587.371618c-3.795443 0-7.496741-0.356111-11.158131-0.893346l0 0.893346L154.151357 587.371618l0-0.893346c-3.656273 0.537236-7.362688 0.893346-11.157107 0.893346-43.131333 0-78.098729-34.967396-78.098729-78.103846 0-43.131333 34.967396-78.097706 78.098729-78.097706 3.793396 0 7.499811 0.356111 11.157107 0.893346l0-0.893346L868.217493 431.170067l0 0.893346c3.66139-0.537236 7.362688-0.893346 11.158131-0.893346 43.135426 0 78.102822 34.966373 78.102822 78.097706C957.478446 552.404222 922.51105 587.371618 879.375623 587.371618L879.375623 587.371618zM879.375623 587.371618" fill="#eff3fd" /></svg>